<svg width="12" height="15" viewBox="0 0 12 15" fill="none" xmlns="http://www.w3.org/2000/svg">
<path fill-rule="evenodd" clip-rule="evenodd" d="M2.0242 5.61122C2.05371 5.58163 2.08878 5.55815 2.12738 5.54213C2.16598 5.52611 2.20737 5.51787 2.24916 5.51787C2.29096 5.51787 2.33234 5.52611 2.37094 5.54213C2.40955 5.55815 2.44461 5.58163 2.47413 5.61122L6.06211 9.19984L9.6501 5.61122C9.67964 5.58167 9.71472 5.55824 9.75331 5.54225C9.79191 5.52626 9.83328 5.51803 9.87506 5.51803C9.91684 5.51803 9.95821 5.52626 9.99681 5.54225C10.0354 5.55824 10.0705 5.58167 10.1 5.61122C10.1296 5.64076 10.153 5.67583 10.169 5.71443C10.185 5.75303 10.1932 5.7944 10.1932 5.83618C10.1932 5.87796 10.185 5.91933 10.169 5.95793C10.153 5.99653 10.1296 6.0316 10.1 6.06115L6.28708 9.8741C6.25756 9.90369 6.2225 9.92717 6.18389 9.94318C6.14529 9.9592 6.10391 9.96745 6.06211 9.96745C6.02032 9.96745 5.97893 9.9592 5.94033 9.94318C5.90173 9.92717 5.86666 9.90369 5.83715 9.8741L2.0242 6.06115C1.99461 6.03163 1.97113 5.99657 1.95511 5.95796C1.93909 5.91936 1.93085 5.87798 1.93085 5.83618C1.93085 5.79439 1.93909 5.753 1.95511 5.7144C1.97113 5.6758 1.99461 5.64073 2.0242 5.61122Z" fill="black"/>
</svg>
