<svg width="22" height="22" viewBox="0 0 22 22" fill="none" xmlns="http://www.w3.org/2000/svg">
<path d="M11 22C4.93429 22 0 17.0657 0 11C0 4.93429 4.93429 0 11 0C14.3526 0 17.4806 1.50071 19.5816 4.11793C19.833 4.43064 19.8086 4.88243 19.525 5.16529L9.98407 14.6984C9.67686 15.0056 9.18029 15.0056 8.87307 14.6984L4.9445 10.7698C4.63729 10.4626 4.63729 9.966 4.9445 9.65879C5.25171 9.35157 5.74829 9.35157 6.0555 9.65879L9.42857 13.0319L17.897 4.5705C16.115 2.6565 13.6376 1.57143 11 1.57143C5.80093 1.57143 1.57143 5.80093 1.57143 11C1.57143 16.1991 5.80093 20.4286 11 20.4286C16.1991 20.4286 20.4286 16.1991 20.4286 11C20.4286 10.01 20.2761 9.03571 19.976 8.10464C19.8424 7.69214 20.0687 7.249 20.482 7.11543C20.8992 6.98264 21.3376 7.20893 21.4712 7.62221C21.8216 8.70886 22 9.845 22 11C22 17.0657 17.0657 22 11 22Z" fill="white"/>
</svg>
