<svg width="242" height="149" viewBox="0 0 242 149" fill="none" xmlns="http://www.w3.org/2000/svg">
<path d="M211.301 33.4349C210.412 33.0333 209.451 32.8341 208.482 32.8506H202.611V47.1752H206.579V42.744H208.383C209.416 42.7723 210.444 42.5742 211.4 42.1624C212.183 41.814 212.847 41.2258 213.302 40.4756C213.758 39.6637 213.986 38.7348 213.96 37.7947C213.993 36.8727 213.757 35.9618 213.282 35.1831C212.807 34.4044 212.116 33.7947 211.301 33.4349ZM209.525 39.0161C209.131 39.2531 208.68 39.3661 208.226 39.3413H206.579V36.3617H208.248C208.692 36.3405 209.131 36.4505 209.517 36.6789C209.843 36.8904 210.008 37.2817 210.009 37.8528C210.011 38.4239 209.849 38.8082 209.525 39.0056V39.0161Z" fill="white"/>
<path d="M224.912 40.4623C225.312 40.0954 225.633 39.645 225.855 39.1403C226.102 38.5653 226.223 37.9405 226.211 37.3108C226.235 36.4512 226.003 35.6049 225.546 34.889C225.079 34.2057 224.431 33.6792 223.681 33.374C222.786 33.0052 221.83 32.8255 220.867 32.8452H215.032V47.1699H218.998V42.2311H219.759L222.331 47.1646H227.005L223.608 41.3136C224.085 41.1077 224.526 40.82 224.912 40.4623ZM221.733 38.6724C221.346 38.8971 220.906 39.0034 220.464 38.9791H219.01V36.1977H220.484C220.926 36.1706 221.367 36.2761 221.753 36.5017C222.065 36.7 222.222 37.0622 222.222 37.5884C222.222 38.1145 222.047 38.4582 221.733 38.6724Z" fill="white"/>
<path d="M241.446 37.0838C241.09 36.1914 240.565 35.3824 239.904 34.7043C239.229 34.0205 238.431 33.4815 237.557 33.1179C236.616 32.7301 235.611 32.5362 234.599 32.5469C233.584 32.5354 232.576 32.7266 231.63 33.11C230.754 33.4717 229.956 34.0109 229.281 34.6964C228.617 35.3721 228.093 36.1818 227.741 37.0759C227.013 38.9708 227.013 41.0848 227.741 42.9797C228.093 43.8738 228.617 44.6835 229.281 45.3592C229.956 46.0446 230.754 46.5838 231.63 46.9456C233.539 47.7035 235.648 47.7035 237.557 46.9456C238.432 46.5831 239.229 46.044 239.904 45.3592C240.568 44.6836 241.093 43.874 241.446 42.9797C241.819 42.0469 242.008 41.045 241.999 40.0344C242.011 39.0218 241.822 38.0176 241.446 37.0838ZM237.6 41.4965C237.457 41.9194 237.23 42.3066 236.935 42.6334C236.644 42.9462 236.293 43.192 235.905 43.3551C235.489 43.5251 235.045 43.6095 234.599 43.6037C234.01 43.6153 233.428 43.4638 232.914 43.1648C232.426 42.8706 232.029 42.4366 231.77 41.9142C231.484 41.323 231.343 40.6672 231.359 40.0053C231.351 39.496 231.43 38.9894 231.592 38.5089C231.737 38.0869 231.965 37.7013 232.262 37.3773C232.547 37.0636 232.893 36.8174 233.277 36.6555C233.693 36.4782 234.139 36.3883 234.589 36.3911C235.177 36.3792 235.758 36.5317 236.271 36.8326C236.758 37.1274 237.154 37.5601 237.415 38.0806C237.702 38.6732 237.843 39.331 237.826 39.9947C237.837 40.5054 237.761 41.014 237.6 41.4965Z" fill="white"/>
<path d="M55.3137 53.0139L52.155 52.0462C50.697 51.5968 49.5367 51.2099 48.6741 50.8855C48.0081 50.6706 47.385 50.3321 46.8346 49.8862C46.6544 49.722 46.5111 49.5184 46.415 49.2899C46.319 49.0614 46.2725 48.8136 46.279 48.5642C46.2806 48.2666 46.3404 47.9725 46.4547 47.6998C46.569 47.427 46.7354 47.1814 46.9437 46.9779C47.4749 46.4622 48.117 46.0869 48.8161 45.8833C49.7386 45.5972 50.698 45.4616 51.6603 45.4814C53.0515 45.4826 54.4363 45.6773 55.778 46.0604C57.0863 46.4202 58.3448 46.9533 59.5228 47.6468C60.5756 48.2511 61.5198 49.041 62.3137 49.9813L68.3166 40.6298C66.5237 38.7615 64.1151 37.2941 61.0908 36.2278C57.9303 35.1463 54.6213 34.6104 51.2949 34.6414C48.994 34.6212 46.7053 34.9909 44.5182 35.736C42.5419 36.4069 40.7012 37.452 39.0887 38.8188C37.6002 40.0829 36.3802 41.6559 35.5063 43.4377C34.6498 45.2064 34.2098 47.1621 34.2225 49.1432C34.1759 52.2549 35.264 55.2691 37.2671 57.5773C39.2968 59.9533 42.6593 61.804 47.3547 63.1295L50.5744 64.031C52.8045 64.6338 54.3268 65.2234 55.1539 65.7919C55.981 66.3603 56.3895 67.0874 56.3895 67.9678C56.3895 68.8482 55.8567 69.57 54.7835 70.0618C53.7103 70.5536 52.3478 70.8047 50.6987 70.8047C49.1315 70.791 47.572 70.5752 46.0557 70.1622C44.4669 69.7473 42.9299 69.1404 41.4762 68.3538C40.1765 67.6916 39.0111 66.7751 38.0434 65.6544L32.2588 75.265C34.5303 77.3272 37.3009 78.9065 40.5704 80.0029C43.8343 81.1004 47.2437 81.6553 50.6733 81.6474C54.2625 81.6474 57.3976 81.0084 60.0785 79.7305C62.7594 78.4526 64.8441 76.6733 66.3325 74.3925C67.8176 72.117 68.5593 69.481 68.5576 66.4846C68.5576 63.1533 67.5258 60.4344 65.4623 58.3281C63.3988 56.2218 60.0159 54.4504 55.3137 53.0139Z" fill="white"/>
<path d="M100.383 48.3203C97.9052 46.8723 95.1041 46.1334 92.2639 46.1787C90.2378 46.1514 88.2259 46.5339 86.3397 47.305C84.6696 47.9717 83.1768 49.045 81.9859 50.4354V47.1437H71.4644V94.2237H83.7797V79.0054C84.9648 79.8908 86.2825 80.5653 87.6793 81.0016C89.0861 81.4344 90.5458 81.6517 92.0127 81.6467C94.2389 81.6718 96.4461 81.2163 98.4951 80.3089C100.431 79.4428 102.174 78.1691 103.615 76.5678C105.077 74.9389 106.218 73.0275 106.974 70.9415C107.783 68.6945 108.185 66.311 108.162 63.9114C108.162 60.2575 107.466 57.1033 106.074 54.4489C104.769 51.8878 102.796 49.7633 100.383 48.3203ZM95.3541 67.523C94.8433 68.5057 94.0752 69.3172 93.1392 69.8628C92.1623 70.4027 91.0735 70.6849 89.9678 70.6849C88.8621 70.6849 87.7732 70.4027 86.7963 69.8628C85.8611 69.317 85.0938 68.5056 84.584 67.523C84.0241 66.4105 83.7472 65.1671 83.7797 63.9114C83.747 62.6543 84.0304 61.4101 84.6017 60.3025C85.1195 59.3206 85.8913 58.5099 86.8293 57.9626C87.7953 57.4229 88.8743 57.1405 89.9703 57.1405C91.0663 57.1405 92.1453 57.4229 93.1113 57.9626C94.0485 58.5101 94.8195 59.3208 95.3364 60.3025C95.9089 61.4097 96.1924 62.6542 96.1584 63.9114C96.1909 65.1671 95.914 66.4105 95.3541 67.523Z" fill="white"/>
<path d="M123.391 47.1465H111.012V80.6818H123.391V47.1465Z" fill="white"/>
<path d="M163.062 47.1466H148.828L141.029 56.6911V31.1431H128.65V80.6819H141.029V71.7799L142.889 69.5907L149.077 80.6819H163.62L151.86 61.1408L163.062 47.1466Z" fill="white"/>
<path d="M188.557 47.143V50.4585C187.812 49.5486 186.93 48.7724 185.944 48.1609C183.851 46.8372 181.381 46.1763 178.533 46.178C176.422 46.1568 174.328 46.5729 172.372 47.4021C170.498 48.2033 168.807 49.4058 167.407 50.9318C165.956 52.5385 164.833 54.4367 164.109 56.5104C163.294 58.8846 162.896 61.3922 162.934 63.9133C162.934 67.5707 163.621 70.7258 164.994 73.3785C166.266 75.9266 168.201 78.0503 170.576 79.5071C172.995 80.9527 175.742 81.6925 178.53 81.6486C181.377 81.6486 183.847 80.9876 185.941 79.6657C186.927 79.0533 187.81 78.2762 188.554 77.3655V80.681H199.015V47.143H188.557ZM185.959 67.5222C185.459 68.4883 184.718 69.2953 183.813 69.8579C182.909 70.4204 181.876 70.7174 180.822 70.7174C179.769 70.7174 178.736 70.4204 177.831 69.8579C176.927 69.2953 176.186 68.4883 175.686 67.5222C175.155 66.3991 174.879 65.1639 174.879 63.912C174.879 62.6601 175.155 61.4249 175.686 60.3017C176.186 59.3357 176.927 58.5287 177.831 57.9662C178.736 57.4036 179.769 57.1066 180.822 57.1066C181.876 57.1066 182.909 57.4036 183.813 57.9662C184.718 58.5287 185.459 59.3357 185.959 60.3017C186.488 61.4254 186.763 62.6604 186.763 63.912C186.763 65.1636 186.488 66.3986 185.959 67.5222Z" fill="white"/>
<path d="M123.338 31.1431H111.066V43.3235H123.338V31.1431Z" fill="white"/>
<path d="M0 29.4689C0 29.4689 19.5106 29.8338 22.951 33.6992C26.6704 37.2843 27.0104 57.6186 27.0104 57.6186H28.2232C28.2232 57.6186 28.5733 37.2843 32.2953 33.6992C35.7331 29.8232 55.2462 29.4689 55.2462 29.4689V28.147C55.2462 28.147 35.7331 27.7821 32.2953 23.9167C28.5733 20.3316 28.2232 0 28.2232 0H27.0104C27.0104 0 26.6603 20.3316 22.951 23.9167C19.5106 27.7927 0 28.147 0 28.147V29.4689Z" fill="white"/>
<path d="M28.248 125L32.704 113.8H33.888L38.512 125H37.144L35.944 122.064H30.72L29.576 125H28.248ZM31.096 120.968H35.552L33.264 115.416L31.096 120.968ZM40.0776 125V117.24H45.0296V118.28H41.2616V125H40.0776ZM50.2288 125.24C49.4128 125.24 48.6928 125.069 48.0688 124.728C47.4448 124.387 46.9568 123.909 46.6048 123.296C46.2528 122.677 46.0768 121.96 46.0768 121.144C46.0768 120.552 46.1754 120.003 46.3728 119.496C46.5754 118.989 46.8581 118.549 47.2208 118.176C47.5888 117.803 48.0154 117.515 48.5008 117.312C48.9914 117.104 49.5248 117 50.1008 117C50.7141 117 51.2608 117.109 51.7408 117.328C52.2208 117.547 52.6208 117.851 52.9408 118.24C53.2661 118.629 53.4981 119.088 53.6368 119.616C53.7808 120.139 53.8181 120.704 53.7488 121.312H47.3008C47.2741 121.888 47.3808 122.392 47.6208 122.824C47.8608 123.251 48.2128 123.584 48.6768 123.824C49.1408 124.064 49.6928 124.184 50.3328 124.184C50.7541 124.184 51.1701 124.112 51.5808 123.968C51.9968 123.824 52.3568 123.619 52.6608 123.352L53.2368 124.272C52.9754 124.485 52.6741 124.667 52.3328 124.816C51.9968 124.96 51.6474 125.067 51.2848 125.136C50.9274 125.205 50.5754 125.24 50.2288 125.24ZM47.3568 120.328H52.5328C52.5061 119.608 52.2848 119.045 51.8688 118.64C51.4581 118.235 50.8634 118.032 50.0848 118.032C49.3328 118.032 48.7088 118.235 48.2128 118.64C47.7221 119.045 47.4368 119.608 47.3568 120.328ZM55.7026 125V117.24H56.8866V120.368H61.4226V117.24H62.6066V125H61.4226V121.408H56.8866V125H55.7026ZM67.1059 125V118.28H64.3299V117.24H71.0659V118.28H68.2899V125H67.1059ZM76.2528 125.24C75.4421 125.24 74.7221 125.061 74.0928 124.704C73.4634 124.347 72.9701 123.859 72.6128 123.24C72.2554 122.616 72.0768 121.909 72.0768 121.12C72.0768 120.517 72.1808 119.968 72.3888 119.472C72.6021 118.971 72.9034 118.536 73.2928 118.168C73.6821 117.795 74.1381 117.507 74.6608 117.304C75.1888 117.101 75.7621 117 76.3808 117C76.8661 117 77.3114 117.061 77.7168 117.184C78.1274 117.307 78.5088 117.501 78.8608 117.768L78.2208 118.704C77.9861 118.507 77.7061 118.357 77.3808 118.256C77.0608 118.149 76.7168 118.096 76.3488 118.096C75.7301 118.096 75.1941 118.216 74.7408 118.456C74.2874 118.691 73.9354 119.035 73.6848 119.488C73.4341 119.936 73.3088 120.475 73.3088 121.104C73.3088 122.053 73.5808 122.797 74.1248 123.336C74.6688 123.875 75.4074 124.144 76.3408 124.144C76.7514 124.144 77.1354 124.069 77.4928 123.92C77.8501 123.771 78.1328 123.587 78.3408 123.368L79.0288 124.272C78.6288 124.571 78.1941 124.808 77.7248 124.984C77.2554 125.155 76.7648 125.24 76.2528 125.24ZM82.684 125V118.28H79.908V117.24H86.644V118.28H83.868V125H82.684ZM88.3589 125V117.24H91.7989C92.6469 117.24 93.3375 117.411 93.8709 117.752C94.4042 118.088 94.6709 118.589 94.6709 119.256C94.6709 119.533 94.6069 119.789 94.4789 120.024C94.3562 120.259 94.1775 120.461 93.9429 120.632C93.7082 120.803 93.4255 120.931 93.0949 121.016L93.0709 120.76C93.7055 120.877 94.1855 121.115 94.5109 121.472C94.8362 121.824 94.9989 122.256 94.9989 122.768C94.9989 123.227 94.8762 123.624 94.6309 123.96C94.3909 124.291 94.0442 124.547 93.5909 124.728C93.1429 124.909 92.6122 125 91.9989 125H88.3589ZM89.5269 124.008H91.8309C92.4655 124.008 92.9562 123.907 93.3029 123.704C93.6495 123.496 93.8229 123.181 93.8229 122.76C93.8229 122.339 93.6495 122.027 93.3029 121.824C92.9562 121.621 92.4655 121.52 91.8309 121.52H89.3109V120.544H91.6549C92.2469 120.544 92.7055 120.456 93.0309 120.28C93.3562 120.099 93.5189 119.803 93.5189 119.392C93.5189 118.976 93.3562 118.677 93.0309 118.496C92.7109 118.315 92.2522 118.224 91.6549 118.224H89.5269V124.008ZM100.611 125.24C99.8217 125.24 99.115 125.053 98.491 124.68C97.867 124.307 97.3763 123.808 97.019 123.184C96.6617 122.555 96.483 121.867 96.483 121.12C96.483 120.56 96.5843 120.032 96.787 119.536C96.995 119.04 97.2857 118.603 97.659 118.224C98.0323 117.84 98.4697 117.541 98.971 117.328C99.4723 117.109 100.019 117 100.611 117C101.406 117 102.112 117.187 102.731 117.56C103.355 117.933 103.846 118.435 104.203 119.064C104.56 119.688 104.739 120.373 104.739 121.12C104.739 121.675 104.635 122.203 104.427 122.704C104.224 123.2 103.939 123.64 103.571 124.024C103.203 124.403 102.766 124.701 102.259 124.92C101.758 125.133 101.208 125.24 100.611 125.24ZM100.611 124.144C101.176 124.144 101.678 124.021 102.115 123.776C102.552 123.525 102.894 123.176 103.139 122.728C103.39 122.275 103.515 121.739 103.515 121.12C103.515 120.501 103.39 119.965 103.139 119.512C102.894 119.059 102.552 118.709 102.115 118.464C101.678 118.219 101.176 118.096 100.611 118.096C100.046 118.096 99.5443 118.219 99.107 118.464C98.6697 118.709 98.3257 119.059 98.075 119.512C97.8297 119.965 97.707 120.501 97.707 121.12C97.707 121.739 97.8323 122.275 98.083 122.728C98.3337 123.176 98.675 123.525 99.107 123.776C99.5443 124.021 100.046 124.144 100.611 124.144ZM114.206 125.24C113.395 125.24 112.675 125.061 112.046 124.704C111.417 124.347 110.923 123.859 110.566 123.24C110.209 122.616 110.03 121.909 110.03 121.12C110.03 120.517 110.134 119.968 110.342 119.472C110.555 118.971 110.857 118.536 111.246 118.168C111.635 117.795 112.091 117.507 112.614 117.304C113.142 117.101 113.715 117 114.334 117C114.819 117 115.265 117.061 115.67 117.184C116.081 117.307 116.462 117.501 116.814 117.768L116.174 118.704C115.939 118.507 115.659 118.357 115.334 118.256C115.014 118.149 114.67 118.096 114.302 118.096C113.683 118.096 113.147 118.216 112.694 118.456C112.241 118.691 111.889 119.035 111.638 119.488C111.387 119.936 111.262 120.475 111.262 121.104C111.262 122.053 111.534 122.797 112.078 123.336C112.622 123.875 113.361 124.144 114.294 124.144C114.705 124.144 115.089 124.069 115.446 123.92C115.803 123.771 116.086 123.587 116.294 123.368L116.982 124.272C116.582 124.571 116.147 124.808 115.678 124.984C115.209 125.155 114.718 125.24 114.206 125.24ZM120.637 125V118.28H117.861V117.24H124.597V118.28H121.821V125H120.637ZM126.312 128.36V117.24H127.44V118.472C127.771 118.045 128.187 117.693 128.688 117.416C129.189 117.139 129.832 117 130.616 117C131.389 117 132.069 117.184 132.656 117.552C133.248 117.92 133.707 118.416 134.032 119.04C134.363 119.664 134.528 120.357 134.528 121.12C134.528 121.685 134.432 122.219 134.24 122.72C134.053 123.216 133.787 123.653 133.44 124.032C133.093 124.411 132.68 124.707 132.2 124.92C131.72 125.133 131.189 125.24 130.608 125.24C129.893 125.24 129.28 125.107 128.768 124.84C128.256 124.568 127.832 124.211 127.496 123.768V128.36H126.312ZM130.4 124.144C130.965 124.144 131.467 124.021 131.904 123.776C132.341 123.525 132.683 123.176 132.928 122.728C133.179 122.275 133.304 121.739 133.304 121.12C133.304 120.501 133.179 119.965 132.928 119.512C132.677 119.059 132.333 118.709 131.896 118.464C131.464 118.219 130.965 118.096 130.4 118.096C129.835 118.096 129.333 118.219 128.896 118.464C128.459 118.709 128.115 119.059 127.864 119.512C127.619 119.965 127.496 120.501 127.496 121.12C127.496 121.739 127.619 122.275 127.864 122.728C128.115 123.176 128.459 123.525 128.896 123.776C129.333 124.021 129.835 124.144 130.4 124.144ZM138.589 125.24C138.034 125.24 137.554 125.139 137.149 124.936C136.743 124.733 136.431 124.451 136.213 124.088C135.994 123.72 135.885 123.291 135.885 122.8C135.885 122.395 135.989 122.024 136.197 121.688C136.41 121.347 136.743 121.064 137.197 120.84C137.655 120.611 138.253 120.459 138.989 120.384C139.725 120.309 140.621 120.331 141.677 120.448L141.717 121.384C140.847 121.272 140.111 121.232 139.509 121.264C138.911 121.296 138.431 121.381 138.069 121.52C137.706 121.659 137.442 121.837 137.277 122.056C137.117 122.275 137.037 122.515 137.037 122.776C137.037 123.224 137.194 123.573 137.509 123.824C137.823 124.075 138.261 124.2 138.821 124.2C139.29 124.2 139.711 124.112 140.085 123.936C140.458 123.76 140.754 123.517 140.973 123.208C141.191 122.899 141.301 122.544 141.301 122.144V119.88C141.301 119.485 141.215 119.147 141.045 118.864C140.874 118.581 140.623 118.363 140.293 118.208C139.967 118.053 139.57 117.976 139.101 117.976C138.695 117.976 138.29 118.037 137.885 118.16C137.485 118.283 137.093 118.485 136.709 118.768L136.325 117.8C136.794 117.469 137.277 117.24 137.773 117.112C138.269 116.984 138.741 116.92 139.189 116.92C139.898 116.92 140.495 117.032 140.981 117.256C141.466 117.48 141.834 117.811 142.085 118.248C142.335 118.685 142.461 119.227 142.461 119.872V125H141.341V124.016C141.063 124.411 140.682 124.715 140.197 124.928C139.711 125.136 139.175 125.24 138.589 125.24ZM146.559 125V118.28H143.783V117.24H150.519V118.28H147.743V125H146.559ZM155.682 125.24C154.866 125.24 154.146 125.069 153.522 124.728C152.898 124.387 152.41 123.909 152.058 123.296C151.706 122.677 151.53 121.96 151.53 121.144C151.53 120.552 151.629 120.003 151.826 119.496C152.029 118.989 152.311 118.549 152.674 118.176C153.042 117.803 153.469 117.515 153.954 117.312C154.445 117.104 154.978 117 155.554 117C156.167 117 156.714 117.109 157.194 117.328C157.674 117.547 158.074 117.851 158.394 118.24C158.719 118.629 158.951 119.088 159.09 119.616C159.234 120.139 159.271 120.704 159.202 121.312H152.754C152.727 121.888 152.834 122.392 153.074 122.824C153.314 123.251 153.666 123.584 154.13 123.824C154.594 124.064 155.146 124.184 155.786 124.184C156.207 124.184 156.623 124.112 157.034 123.968C157.45 123.824 157.81 123.619 158.114 123.352L158.69 124.272C158.429 124.485 158.127 124.667 157.786 124.816C157.45 124.96 157.101 125.067 156.738 125.136C156.381 125.205 156.029 125.24 155.682 125.24ZM152.81 120.328H157.986C157.959 119.608 157.738 119.045 157.322 118.64C156.911 118.235 156.317 118.032 155.538 118.032C154.786 118.032 154.162 118.235 153.666 118.64C153.175 119.045 152.89 119.608 152.81 120.328ZM161.156 125V117.24H166.108V118.28H162.34V125H161.156ZM167.859 125V117.24H169.027V123.16L173.851 117.24H174.843V125H173.683V119.016L168.811 125H167.859ZM182.132 125V121.736C181.743 121.837 181.372 121.915 181.02 121.968C180.668 122.016 180.292 122.04 179.892 122.04C179.167 122.04 178.572 121.933 178.108 121.72C177.644 121.501 177.3 121.184 177.076 120.768C176.858 120.347 176.748 119.829 176.748 119.216V117.24H177.932V119.04C177.932 119.669 178.09 120.147 178.404 120.472C178.724 120.797 179.266 120.96 180.028 120.96C180.466 120.96 180.85 120.939 181.18 120.896C181.516 120.853 181.834 120.8 182.132 120.736V117.24H183.316V125H182.132ZM189.401 125.24C188.585 125.24 187.865 125.069 187.241 124.728C186.617 124.387 186.129 123.909 185.777 123.296C185.425 122.677 185.249 121.96 185.249 121.144C185.249 120.552 185.347 120.003 185.545 119.496C185.747 118.989 186.03 118.549 186.393 118.176C186.761 117.803 187.187 117.515 187.673 117.312C188.163 117.104 188.697 117 189.273 117C189.886 117 190.433 117.109 190.913 117.328C191.393 117.547 191.793 117.851 192.113 118.24C192.438 118.629 192.67 119.088 192.809 119.616C192.953 120.139 192.99 120.704 192.921 121.312H186.473C186.446 121.888 186.553 122.392 186.793 122.824C187.033 123.251 187.385 123.584 187.849 123.824C188.313 124.064 188.865 124.184 189.505 124.184C189.926 124.184 190.342 124.112 190.753 123.968C191.169 123.824 191.529 123.619 191.833 123.352L192.409 124.272C192.147 124.485 191.846 124.667 191.505 124.816C191.169 124.96 190.819 125.067 190.457 125.136C190.099 125.205 189.747 125.24 189.401 125.24ZM186.529 120.328H191.705C191.678 119.608 191.457 119.045 191.041 118.64C190.63 118.235 190.035 118.032 189.257 118.032C188.505 118.032 187.881 118.235 187.385 118.64C186.894 119.045 186.609 119.608 186.529 120.328ZM198.425 125.24C197.614 125.24 196.894 125.061 196.265 124.704C195.635 124.347 195.142 123.859 194.785 123.24C194.427 122.616 194.249 121.909 194.249 121.12C194.249 120.517 194.353 119.968 194.561 119.472C194.774 118.971 195.075 118.536 195.465 118.168C195.854 117.795 196.31 117.507 196.833 117.304C197.361 117.101 197.934 117 198.553 117C199.038 117 199.483 117.061 199.889 117.184C200.299 117.307 200.681 117.501 201.033 117.768L200.393 118.704C200.158 118.507 199.878 118.357 199.553 118.256C199.233 118.149 198.889 118.096 198.521 118.096C197.902 118.096 197.366 118.216 196.913 118.456C196.459 118.691 196.107 119.035 195.857 119.488C195.606 119.936 195.481 120.475 195.481 121.104C195.481 122.053 195.753 122.797 196.297 123.336C196.841 123.875 197.579 124.144 198.513 124.144C198.923 124.144 199.307 124.069 199.665 123.92C200.022 123.771 200.305 123.587 200.513 123.368L201.201 124.272C200.801 124.571 200.366 124.808 199.897 124.984C199.427 125.155 198.937 125.24 198.425 125.24ZM208.24 125L205.56 120.832L207.88 117.24H209.168L206.856 120.784L209.688 125H208.24ZM202.984 125V117.24H204.168V120.368H206.48V121.408H204.168V125H202.984ZM214.705 125.24C213.915 125.24 213.209 125.053 212.585 124.68C211.961 124.307 211.47 123.808 211.113 123.184C210.755 122.555 210.577 121.867 210.577 121.12C210.577 120.56 210.678 120.032 210.881 119.536C211.089 119.04 211.379 118.603 211.753 118.224C212.126 117.84 212.563 117.541 213.065 117.328C213.566 117.109 214.113 117 214.705 117C215.499 117 216.206 117.187 216.825 117.56C217.449 117.933 217.939 118.435 218.297 119.064C218.654 119.688 218.833 120.373 218.833 121.12C218.833 121.675 218.729 122.203 218.521 122.704C218.318 123.2 218.033 123.64 217.665 124.024C217.297 124.403 216.859 124.701 216.353 124.92C215.851 125.133 215.302 125.24 214.705 125.24ZM214.705 124.144C215.27 124.144 215.771 124.021 216.209 123.776C216.646 123.525 216.987 123.176 217.233 122.728C217.483 122.275 217.609 121.739 217.609 121.12C217.609 120.501 217.483 119.965 217.233 119.512C216.987 119.059 216.646 118.709 216.209 118.464C215.771 118.219 215.27 118.096 214.705 118.096C214.139 118.096 213.638 118.219 213.201 118.464C212.763 118.709 212.419 119.059 212.169 119.512C211.923 119.965 211.801 120.501 211.801 121.12C211.801 121.739 211.926 122.275 212.177 122.728C212.427 123.176 212.769 123.525 213.201 123.776C213.638 124.021 214.139 124.144 214.705 124.144ZM220.75 125V117.24H225.702V118.28H221.934V125H220.75ZM230.877 125.24C230.087 125.24 229.381 125.053 228.757 124.68C228.133 124.307 227.642 123.808 227.285 123.184C226.927 122.555 226.749 121.867 226.749 121.12C226.749 120.56 226.85 120.032 227.053 119.536C227.261 119.04 227.551 118.603 227.925 118.224C228.298 117.84 228.735 117.541 229.237 117.328C229.738 117.109 230.285 117 230.877 117C231.671 117 232.378 117.187 232.997 117.56C233.621 117.933 234.111 118.435 234.469 119.064C234.826 119.688 235.005 120.373 235.005 121.12C235.005 121.675 234.901 122.203 234.693 122.704C234.49 123.2 234.205 123.64 233.837 124.024C233.469 124.403 233.031 124.701 232.525 124.92C232.023 125.133 231.474 125.24 230.877 125.24ZM230.877 124.144C231.442 124.144 231.943 124.021 232.381 123.776C232.818 123.525 233.159 123.176 233.405 122.728C233.655 122.275 233.781 121.739 233.781 121.12C233.781 120.501 233.655 119.965 233.405 119.512C233.159 119.059 232.818 118.709 232.381 118.464C231.943 118.219 231.442 118.096 230.877 118.096C230.311 118.096 229.81 118.219 229.373 118.464C228.935 118.709 228.591 119.059 228.341 119.512C228.095 119.965 227.973 120.501 227.973 121.12C227.973 121.739 228.098 122.275 228.349 122.728C228.599 123.176 228.941 123.525 229.373 123.776C229.81 124.021 230.311 124.144 230.877 124.144ZM29.312 145V137.24H30.368H30.416L34.128 142.44L33.608 142.456L37.176 137.24H38.248V145H37.12L37.128 138.768L37.344 138.872L34.224 143.288H33.352L30.128 138.856L30.336 138.76L30.344 145H29.312ZM43.0105 145.24C42.4558 145.24 41.9758 145.139 41.5705 144.936C41.1652 144.733 40.8532 144.451 40.6345 144.088C40.4158 143.72 40.3065 143.291 40.3065 142.8C40.3065 142.395 40.4105 142.024 40.6185 141.688C40.8318 141.347 41.1652 141.064 41.6185 140.84C42.0772 140.611 42.6745 140.459 43.4105 140.384C44.1465 140.309 45.0425 140.331 46.0985 140.448L46.1385 141.384C45.2692 141.272 44.5332 141.232 43.9305 141.264C43.3332 141.296 42.8532 141.381 42.4905 141.52C42.1278 141.659 41.8638 141.837 41.6985 142.056C41.5385 142.275 41.4585 142.515 41.4585 142.776C41.4585 143.224 41.6158 143.573 41.9305 143.824C42.2452 144.075 42.6825 144.2 43.2425 144.2C43.7118 144.2 44.1332 144.112 44.5065 143.936C44.8798 143.76 45.1758 143.517 45.3945 143.208C45.6132 142.899 45.7225 142.544 45.7225 142.144V139.88C45.7225 139.485 45.6372 139.147 45.4665 138.864C45.2958 138.581 45.0452 138.363 44.7145 138.208C44.3892 138.053 43.9918 137.976 43.5225 137.976C43.1172 137.976 42.7118 138.037 42.3065 138.16C41.9065 138.283 41.5145 138.485 41.1305 138.768L40.7465 137.8C41.2158 137.469 41.6985 137.24 42.1945 137.112C42.6905 136.984 43.1625 136.92 43.6105 136.92C44.3198 136.92 44.9172 137.032 45.4025 137.256C45.8878 137.48 46.2558 137.811 46.5065 138.248C46.7572 138.685 46.8825 139.227 46.8825 139.872V145H45.7625V144.016C45.4852 144.411 45.1038 144.715 44.6185 144.928C44.1332 145.136 43.5972 145.24 43.0105 145.24ZM49.4058 148.36V137.24H50.5338V138.472C50.8644 138.045 51.2804 137.693 51.7818 137.416C52.2831 137.139 52.9258 137 53.7098 137C54.4831 137 55.1631 137.184 55.7498 137.552C56.3418 137.92 56.8004 138.416 57.1258 139.04C57.4564 139.664 57.6218 140.357 57.6218 141.12C57.6218 141.685 57.5258 142.219 57.3338 142.72C57.1471 143.216 56.8804 143.653 56.5338 144.032C56.1871 144.411 55.7738 144.707 55.2938 144.92C54.8138 145.133 54.2831 145.24 53.7018 145.24C52.9871 145.24 52.3738 145.107 51.8618 144.84C51.3498 144.568 50.9258 144.211 50.5898 143.768V148.36H49.4058ZM53.4938 144.144C54.0591 144.144 54.5604 144.021 54.9978 143.776C55.4351 143.525 55.7764 143.176 56.0218 142.728C56.2724 142.275 56.3978 141.739 56.3978 141.12C56.3978 140.501 56.2724 139.965 56.0218 139.512C55.7711 139.059 55.4271 138.709 54.9898 138.464C54.5578 138.219 54.0591 138.096 53.4938 138.096C52.9284 138.096 52.4271 138.219 51.9898 138.464C51.5524 138.709 51.2084 139.059 50.9578 139.512C50.7124 139.965 50.5898 140.501 50.5898 141.12C50.5898 141.739 50.7124 142.275 50.9578 142.728C51.2084 143.176 51.5524 143.525 51.9898 143.776C52.4271 144.021 52.9284 144.144 53.4938 144.144ZM64.8024 145L62.1224 140.832L64.4424 137.24H65.7304L63.4184 140.784L66.2504 145H64.8024ZM59.5464 145V137.24H60.7304V140.368H63.0424V141.408H60.7304V145H59.5464ZM71.2913 145.24C70.4753 145.24 69.7553 145.069 69.1313 144.728C68.5073 144.387 68.0193 143.909 67.6673 143.296C67.3153 142.677 67.1393 141.96 67.1393 141.144C67.1393 140.552 67.2379 140.003 67.4353 139.496C67.6379 138.989 67.9206 138.549 68.2833 138.176C68.6513 137.803 69.0779 137.515 69.5633 137.312C70.0539 137.104 70.5873 137 71.1633 137C71.7766 137 72.3233 137.109 72.8033 137.328C73.2833 137.547 73.6833 137.851 74.0033 138.24C74.3286 138.629 74.5606 139.088 74.6993 139.616C74.8433 140.139 74.8806 140.704 74.8113 141.312H68.3633C68.3366 141.888 68.4433 142.392 68.6833 142.824C68.9233 143.251 69.2753 143.584 69.7393 143.824C70.2033 144.064 70.7553 144.184 71.3953 144.184C71.8166 144.184 72.2326 144.112 72.6433 143.968C73.0593 143.824 73.4193 143.619 73.7233 143.352L74.2993 144.272C74.0379 144.485 73.7366 144.667 73.3953 144.816C73.0593 144.96 72.7099 145.067 72.3473 145.136C71.9899 145.205 71.6379 145.24 71.2913 145.24ZM68.4193 140.328H73.5953C73.5686 139.608 73.3473 139.045 72.9313 138.64C72.5206 138.235 71.9259 138.032 71.1473 138.032C70.3953 138.032 69.7713 138.235 69.2753 138.64C68.7846 139.045 68.4993 139.608 68.4193 140.328ZM78.6371 145V138.28H75.8611V137.24H82.5971V138.28H79.8211V145H78.6371ZM84.312 145V137.24H85.48V143.16L90.304 137.24H91.296V145H90.136V139.016L85.264 145H84.312ZM93.9214 145V137.24H95.1054V140.368H99.6414V137.24H100.825V145H99.6414V141.408H95.1054V145H93.9214ZM103.453 145V137.24H108.405V138.28H104.637V145H103.453ZM112.292 145.24C111.737 145.24 111.257 145.139 110.852 144.936C110.446 144.733 110.134 144.451 109.916 144.088C109.697 143.72 109.588 143.291 109.588 142.8C109.588 142.395 109.692 142.024 109.9 141.688C110.113 141.347 110.446 141.064 110.9 140.84C111.358 140.611 111.956 140.459 112.692 140.384C113.428 140.309 114.324 140.331 115.38 140.448L115.42 141.384C114.55 141.272 113.814 141.232 113.212 141.264C112.614 141.296 112.134 141.381 111.772 141.52C111.409 141.659 111.145 141.837 110.98 142.056C110.82 142.275 110.74 142.515 110.74 142.776C110.74 143.224 110.897 143.573 111.212 143.824C111.526 144.075 111.964 144.2 112.524 144.2C112.993 144.2 113.414 144.112 113.788 143.936C114.161 143.76 114.457 143.517 114.676 143.208C114.894 142.899 115.004 142.544 115.004 142.144V139.88C115.004 139.485 114.918 139.147 114.748 138.864C114.577 138.581 114.326 138.363 113.996 138.208C113.67 138.053 113.273 137.976 112.804 137.976C112.398 137.976 111.993 138.037 111.588 138.16C111.188 138.283 110.796 138.485 110.412 138.768L110.028 137.8C110.497 137.469 110.98 137.24 111.476 137.112C111.972 136.984 112.444 136.92 112.892 136.92C113.601 136.92 114.198 137.032 114.684 137.256C115.169 137.48 115.537 137.811 115.788 138.248C116.038 138.685 116.164 139.227 116.164 139.872V145H115.044V144.016C114.766 144.411 114.385 144.715 113.9 144.928C113.414 145.136 112.878 145.24 112.292 145.24Z" fill="white"/>
</svg>
