<svg width="20" height="16" viewBox="0 0 20 16" fill="none" xmlns="http://www.w3.org/2000/svg">
<path fill-rule="evenodd" clip-rule="evenodd" d="M0.0625 2.8998C0.188523 2.34761 0.498319 1.85457 0.941152 1.50144C1.38398 1.14831 1.93361 0.956017 2.5 0.956055H17.5C18.0664 0.956017 18.616 1.14831 19.0588 1.50144C19.5017 1.85457 19.8115 2.34761 19.9375 2.8998L10 8.97355L0.0625 2.8998ZM0 4.3273V13.2073L7.25375 8.7598L0 4.3273ZM8.45125 9.49356L0.23875 14.5273C0.441658 14.9552 0.761908 15.3166 1.16223 15.5695C1.56255 15.8225 2.02647 15.9565 2.5 15.9561H17.5C17.9735 15.9562 18.4372 15.8218 18.8373 15.5687C19.2374 15.3155 19.5574 14.954 19.76 14.5261L11.5475 9.49231L10 10.4386L8.45125 9.49231V9.49356ZM12.7462 8.76105L20 13.2073V4.3273L12.7462 8.7598V8.76105Z" fill="white"/>
</svg>
