<svg width="52" height="53" viewBox="0 0 52 53" fill="none" xmlns="http://www.w3.org/2000/svg">
<path d="M26 0.456055C11.7 0.456055 0 12.1561 0 26.4561C0 40.7561 11.7 52.4561 26 52.4561C40.3 52.4561 52 40.7561 52 26.4561C52 12.1561 40.3 0.456055 26 0.456055Z" fill="white"/>
<path d="M27.5607 38.4157C15.8607 38.4157 9.2307 30.4857 8.9707 17.0957H14.8207C14.9507 26.8457 19.3707 31.0057 22.7507 31.7857V17.0957H28.2107V25.5457C31.5907 25.1557 35.1007 21.3857 36.2707 17.0957H41.7307C40.8207 22.2957 36.9207 26.1957 34.1907 27.7557C36.9207 29.0557 41.3407 32.4357 42.9007 38.4157H36.7907C35.4907 34.3857 32.2407 31.2657 27.9507 30.7457V38.4157H27.5607Z" fill="black"/>
</svg>
