<svg width="52" height="53" viewBox="0 0 52 53" fill="none" xmlns="http://www.w3.org/2000/svg">
<rect y="0.456055" width="52" height="52" rx="26" fill="white"/>
<path d="M43.8083 17.5256C43.3799 15.9345 42.1254 14.68 40.5343 14.2516C37.6275 13.4561 26.0002 13.4561 26.0002 13.4561C26.0002 13.4561 14.3729 13.4561 11.4661 14.221C9.90557 14.6494 8.62045 15.9345 8.19208 17.5256C7.42712 20.4324 7.42712 26.4603 7.42712 26.4603C7.42712 26.4603 7.42712 32.5187 8.19208 35.3949C8.62045 36.986 9.87497 38.2405 11.4661 38.6689C14.4035 39.4645 26.0002 39.4645 26.0002 39.4645C26.0002 39.4645 37.6275 39.4645 40.5343 38.6995C42.1254 38.2711 43.3799 37.0166 43.8083 35.4255C44.5732 32.5187 44.5732 26.4909 44.5732 26.4909C44.5732 26.4909 44.6038 20.4324 43.8083 17.5256Z" fill="black"/>
<path d="M22.2985 32.0293L31.9675 26.4605L22.2985 20.8916V32.0293Z" fill="white"/>
</svg>
