<svg width="360" height="77" viewBox="0 0 360 77" fill="none" xmlns="http://www.w3.org/2000/svg">
<path d="M171.816 27.1868C171.093 26.8603 170.312 26.6983 169.524 26.7117H164.75V38.3595H167.977V34.7564H169.443C170.284 34.7794 171.119 34.6183 171.896 34.2834C172.534 34.0002 173.073 33.5218 173.444 32.9118C173.814 32.2516 173.999 31.4963 173.978 30.7319C174.005 29.9822 173.813 29.2416 173.427 28.6084C173.041 27.9752 172.479 27.4794 171.816 27.1868ZM170.372 31.7251C170.052 31.9178 169.685 32.0097 169.315 31.9895H167.977V29.5667H169.334C169.694 29.5495 170.052 29.6389 170.366 29.8247C170.631 29.9966 170.764 30.3148 170.766 30.7792C170.767 31.2436 170.636 31.556 170.372 31.7165V31.7251Z" fill="black"/>
<path d="M182.885 32.9009C183.21 32.6025 183.472 32.2363 183.652 31.826C183.853 31.3584 183.952 30.8504 183.941 30.3383C183.961 29.6394 183.772 28.9512 183.401 28.3691C183.021 27.8135 182.494 27.3854 181.884 27.1372C181.157 26.8374 180.379 26.6912 179.597 26.7072H174.852V38.355H178.076V34.3392H178.695L180.787 38.3507H184.587L181.825 33.5932C182.213 33.4257 182.571 33.1917 182.885 32.9009ZM180.3 31.4455C179.986 31.6282 179.628 31.7147 179.268 31.6949H178.086V29.4332H179.285C179.644 29.4112 180.002 29.497 180.317 29.6805C180.57 29.8417 180.698 30.1362 180.698 30.564C180.698 30.9919 180.556 31.2713 180.3 31.4455Z" fill="black"/>
<path d="M196.326 30.1534C196.036 29.4277 195.61 28.7699 195.072 28.2185C194.523 27.6625 193.875 27.2243 193.164 26.9286C192.398 26.6133 191.581 26.4556 190.758 26.4643C189.933 26.455 189.114 26.6104 188.345 26.9222C187.632 27.2162 186.983 27.6547 186.434 28.2121C185.895 28.7615 185.469 29.4199 185.182 30.1469C184.59 31.6878 184.59 33.4067 185.182 34.9475C185.469 35.6745 185.895 36.3329 186.434 36.8823C186.983 37.4397 187.632 37.8781 188.345 38.1722C189.896 38.7886 191.612 38.7886 193.164 38.1722C193.875 37.8775 194.524 37.4391 195.072 36.8823C195.612 36.333 196.039 35.6746 196.326 34.9475C196.63 34.189 196.783 33.3743 196.776 32.5526C196.785 31.7292 196.632 30.9126 196.326 30.1534ZM193.199 33.7414C193.082 34.0853 192.898 34.4002 192.658 34.6659C192.421 34.9202 192.136 35.1202 191.821 35.2528C191.482 35.391 191.122 35.4596 190.758 35.4549C190.279 35.4643 189.807 35.3411 189.388 35.098C188.991 34.8588 188.668 34.5059 188.458 34.0811C188.225 33.6004 188.111 33.0671 188.124 32.5289C188.117 32.1148 188.182 31.7028 188.314 31.3121C188.431 30.969 188.617 30.6555 188.858 30.392C189.09 30.1369 189.371 29.9368 189.683 29.8051C190.022 29.6609 190.384 29.5878 190.75 29.5901C191.229 29.5805 191.701 29.7044 192.118 29.9491C192.514 30.1888 192.836 30.5407 193.048 30.9639C193.282 31.4458 193.397 31.9807 193.382 32.5203C193.392 32.9355 193.33 33.3491 193.199 33.7414Z" fill="black"/>
<path d="M44.9771 43.1062L42.4087 42.3194C41.2231 41.9539 40.2796 41.6393 39.5782 41.3756C39.0367 41.2009 38.53 40.9256 38.0825 40.563C37.9359 40.4295 37.8194 40.264 37.7413 40.0781C37.6632 39.8923 37.6255 39.6909 37.6307 39.4881C37.6321 39.2461 37.6807 39.0069 37.7736 38.7852C37.8665 38.5634 38.0018 38.3637 38.1712 38.1982C38.6031 37.7789 39.1252 37.4737 39.6937 37.3081C40.4438 37.0755 41.2239 36.9653 42.0064 36.9814C43.1376 36.9823 44.2637 37.1407 45.3547 37.4522C46.4184 37.7447 47.4418 38.1782 48.3997 38.7421C49.2557 39.2335 50.0235 39.8757 50.669 40.6404L55.5501 33.0364C54.0922 31.5172 52.1338 30.324 49.6746 29.4569C47.1047 28.5776 44.4141 28.1418 41.7093 28.167C39.8384 28.1506 37.9773 28.4512 36.199 29.0571C34.592 29.6026 33.0953 30.4524 31.7841 31.5638C30.5737 32.5917 29.5817 33.8707 28.8711 35.3195C28.1747 36.7577 27.8169 38.348 27.8272 39.9589C27.7894 42.4891 28.6741 44.94 30.3029 46.8169C31.9533 48.7488 34.6875 50.2537 38.5054 51.3315L41.1234 52.0646C42.9368 52.5548 44.1746 53.0342 44.8472 53.4964C45.5197 53.9586 45.8519 54.5498 45.8519 55.2657C45.8519 55.9816 45.4186 56.5685 44.546 56.9684C43.6733 57.3682 42.5655 57.5725 41.2245 57.5725C39.9502 57.5613 38.6821 57.3859 37.4492 57.0501C36.1572 56.7126 34.9075 56.2191 33.7254 55.5796C32.6686 55.0411 31.721 54.2959 30.9342 53.3846L26.2305 61.1992C28.0776 62.8761 30.3304 64.1603 32.9889 65.0517C35.6429 65.9442 38.4152 66.3954 41.2039 66.3889C44.1224 66.3889 46.6716 65.8694 48.8515 64.8303C51.0314 63.7912 52.7265 62.3444 53.9368 60.4898C55.1444 58.6395 55.7475 56.4961 55.7461 54.0596C55.7461 51.3508 54.9071 49.1401 53.2292 47.4274C51.5513 45.7147 48.8006 44.2743 44.9771 43.1062Z" fill="black"/>
<path d="M81.6237 39.2903C79.6092 38.1129 77.3315 37.5121 75.022 37.549C73.3746 37.5268 71.7386 37.8378 70.2049 38.4648C68.8469 39.0069 67.6331 39.8796 66.6647 41.0102V38.3337H58.1094V76.6157H68.1233V64.2413C69.0869 64.9612 70.1584 65.5097 71.2941 65.8644C72.4381 66.2164 73.625 66.3931 74.8178 66.389C76.628 66.4094 78.4227 66.039 80.0888 65.3012C81.6629 64.5969 83.0802 63.5613 84.252 62.2591C85.4404 60.9347 86.3683 59.3805 86.9834 57.6843C87.6407 55.8572 87.9681 53.9191 87.9489 51.9679C87.9489 48.9968 87.383 46.4321 86.251 44.2736C85.1902 42.1912 83.5861 40.4637 81.6237 39.2903ZM77.5348 54.9046C77.1195 55.7037 76.4949 56.3635 75.7338 56.8072C74.9395 57.2461 74.0541 57.4756 73.155 57.4756C72.2559 57.4756 71.3705 57.2461 70.5762 56.8072C69.8157 56.3634 69.1918 55.7035 68.7773 54.9046C68.322 54 68.0969 52.9889 68.1233 51.9679C68.0967 50.9457 68.3271 49.9341 68.7917 49.0334C69.2127 48.235 69.8403 47.5758 70.603 47.1308C71.3885 46.6919 72.2658 46.4623 73.157 46.4623C74.0483 46.4623 74.9256 46.6919 75.7111 47.1308C76.4732 47.576 77.1001 48.2352 77.5203 49.0334C77.9859 49.9337 78.2164 50.9456 78.1888 51.9679C78.2152 52.9889 77.99 54 77.5348 54.9046Z" fill="black"/>
<path d="M100.335 38.3359H90.2695V65.6044H100.335V38.3359Z" fill="black"/>
<path d="M132.59 38.3357H121.017L114.675 46.0966V25.3228H104.61V65.6042H114.675V58.3657L116.187 56.5856L121.219 65.6042H133.044L123.482 49.7148L132.59 38.3357Z" fill="black"/>
<path d="M153.321 38.3334V41.0293C152.716 40.2894 151.998 39.6583 151.196 39.1611C149.495 38.0848 147.486 37.5473 145.17 37.5487C143.454 37.5314 141.751 37.8698 140.161 38.5441C138.637 39.1956 137.262 40.1734 136.124 41.4141C134.943 42.7206 134.031 44.2641 133.442 45.9503C132.779 47.8808 132.456 49.9198 132.487 51.9698C132.487 54.9437 133.045 57.5092 134.162 59.6662C135.196 61.7381 136.769 63.465 138.7 64.6495C140.667 65.825 142.901 66.4266 145.168 66.3909C147.483 66.3909 149.491 65.8534 151.194 64.7785C151.996 64.2806 152.714 63.6487 153.319 62.9081V65.604H161.825V38.3334H153.321ZM151.208 54.9043C150.802 55.6898 150.199 56.3461 149.464 56.8035C148.729 57.2609 147.888 57.5024 147.032 57.5024C146.176 57.5024 145.335 57.2609 144.6 56.8035C143.865 56.3461 143.262 55.6898 142.855 54.9043C142.424 53.9911 142.199 52.9867 142.199 51.9687C142.199 50.9508 142.424 49.9464 142.855 49.0331C143.262 48.2476 143.865 47.5914 144.6 47.134C145.335 46.6766 146.176 46.4351 147.032 46.4351C147.888 46.4351 148.729 46.6766 149.464 47.134C150.199 47.5914 150.802 48.2476 151.208 49.0331C151.639 49.9468 151.862 50.951 151.862 51.9687C151.862 52.9865 151.639 53.9907 151.208 54.9043Z" fill="black"/>
<path d="M100.291 25.3228H90.3125V35.227H100.291V25.3228Z" fill="black"/>
<path d="M0 23.962C0 23.962 15.8646 24.2587 18.6621 27.4018C21.6865 30.3169 21.9629 46.8513 21.9629 46.8513H22.949C22.949 46.8513 23.2337 30.3169 26.2602 27.4018C29.0556 24.2501 44.9223 23.962 44.9223 23.962V22.8871C44.9223 22.8871 29.0556 22.5904 26.2602 19.4474C23.2337 16.5322 22.949 0 22.949 0H21.9629C21.9629 0 21.6782 16.5322 18.6621 19.4474C15.8646 22.599 0 22.8871 0 22.8871V23.962Z" fill="black"/>
<path d="M254.278 35.5812L257.695 26.8998H258.904L262.427 35.5812H261.112L260.25 33.4046H256.381L255.556 35.5812H254.278ZM256.709 32.3877H259.909L258.272 28.3446L256.709 32.3877ZM263.569 35.5812V29.5042H267.507V30.4716H264.71V35.5812H263.569ZM271.56 35.7672C270.915 35.7672 270.347 35.6329 269.855 35.3641C269.363 35.0954 268.978 34.7213 268.701 34.2418C268.424 33.7581 268.286 33.1959 268.286 32.5551C268.286 32.0921 268.364 31.6622 268.521 31.2653C268.683 30.8684 268.906 30.5253 269.191 30.2359C269.48 29.9466 269.817 29.7212 270.202 29.56C270.59 29.3988 271.012 29.3182 271.467 29.3182C271.959 29.3182 272.397 29.405 272.781 29.5786C273.17 29.7523 273.49 29.9962 273.743 30.3103C273.999 30.6204 274.183 30.9862 274.295 31.4079C274.406 31.8254 274.429 32.2802 274.363 32.7721H269.414C269.402 33.1773 269.485 33.5328 269.662 33.8387C269.84 34.1405 270.096 34.3761 270.431 34.5456C270.77 34.7151 271.171 34.7999 271.634 34.7999C271.973 34.7999 272.304 34.7461 272.626 34.6386C272.949 34.5311 273.234 34.372 273.482 34.1612L273.966 35.0107C273.767 35.1719 273.532 35.3104 273.259 35.4262C272.99 35.5378 272.709 35.6225 272.416 35.6804C272.122 35.7383 271.837 35.7672 271.56 35.7672ZM269.476 31.8854H273.222C273.205 31.3728 273.046 30.9738 272.744 30.6886C272.442 30.3992 272.01 30.2545 271.448 30.2545C270.903 30.2545 270.452 30.3992 270.096 30.6886C269.741 30.9738 269.534 31.3728 269.476 31.8854ZM275.838 35.5812V29.5042H276.979V31.8978H280.271V29.5042H281.412V35.5812H280.271V32.8651H276.979V35.5812H275.838ZM284.791 35.5812V30.4716H282.707V29.5042H288.021V30.4716H285.932V35.5812H284.791ZM292.071 35.7672C291.43 35.7672 290.862 35.6267 290.366 35.3455C289.869 35.0644 289.481 34.682 289.2 34.1984C288.919 33.7105 288.778 33.1587 288.778 32.5427C288.778 32.0756 288.861 31.6456 289.026 31.2529C289.196 30.8602 289.433 30.5191 289.739 30.2297C290.045 29.9404 290.403 29.7171 290.812 29.56C291.225 29.3988 291.676 29.3182 292.164 29.3182C292.561 29.3182 292.927 29.3699 293.261 29.4732C293.596 29.5766 293.906 29.7357 294.192 29.9507L293.609 30.8312C293.423 30.67 293.206 30.5501 292.958 30.4716C292.709 30.3889 292.447 30.3475 292.17 30.3475C291.715 30.3475 291.32 30.4344 290.986 30.608C290.655 30.7775 290.399 31.0255 290.217 31.3521C290.035 31.6787 289.944 32.0714 289.944 32.5303C289.944 33.2207 290.142 33.7622 290.539 34.155C290.94 34.5435 291.482 34.7378 292.164 34.7378C292.478 34.7378 292.771 34.682 293.044 34.5704C293.317 34.4547 293.54 34.3058 293.714 34.1239L294.303 34.9921C293.985 35.2319 293.635 35.422 293.255 35.5626C292.875 35.699 292.48 35.7672 292.071 35.7672ZM297.035 35.5812V30.4716H294.952V29.5042H300.266V30.4716H298.176V35.5812H297.035ZM301.562 35.5812V29.5042H304.352C305.03 29.5042 305.576 29.6365 305.99 29.9011C306.407 30.1657 306.616 30.5584 306.616 31.0793C306.616 31.3108 306.562 31.5195 306.455 31.7056C306.347 31.8916 306.194 32.0508 305.996 32.183C305.797 32.3112 305.564 32.4063 305.295 32.4683L305.276 32.2202C305.793 32.3029 306.188 32.4848 306.461 32.7659C306.738 33.0429 306.876 33.3902 306.876 33.8077C306.876 34.1756 306.779 34.4919 306.585 34.7564C306.395 35.021 306.122 35.2257 305.766 35.3703C305.411 35.5109 304.987 35.5812 304.495 35.5812H301.562ZM302.672 34.6944H304.34C304.787 34.6944 305.132 34.62 305.376 34.4712C305.624 34.3224 305.748 34.0991 305.748 33.8015C305.748 33.5038 305.626 33.2827 305.382 33.138C305.138 32.9892 304.791 32.9148 304.34 32.9148H302.498V32.0528H304.197C304.619 32.0528 304.946 31.9887 305.177 31.8606C305.409 31.7324 305.524 31.5195 305.524 31.2219C305.524 30.9284 305.409 30.7175 305.177 30.5894C304.95 30.4571 304.623 30.391 304.197 30.391H302.672V34.6944ZM311.224 35.7672C310.596 35.7672 310.036 35.6204 309.544 35.3269C309.052 35.0334 308.665 34.6428 308.384 34.155C308.103 33.6671 307.962 33.1297 307.962 32.5427C307.962 32.1086 308.043 31.6973 308.204 31.3087C308.365 30.9201 308.593 30.577 308.886 30.2793C309.18 29.9776 309.525 29.7419 309.922 29.5724C310.319 29.4029 310.753 29.3182 311.224 29.3182C311.857 29.3182 312.419 29.4649 312.911 29.7585C313.403 30.052 313.789 30.4426 314.07 30.9304C314.351 31.4183 314.492 31.9557 314.492 32.5427C314.492 32.9768 314.411 33.3881 314.25 33.7767C314.089 34.1653 313.862 34.5084 313.568 34.8061C313.275 35.1037 312.929 35.3393 312.532 35.513C312.136 35.6825 311.699 35.7672 311.224 35.7672ZM311.224 34.7378C311.633 34.7378 311.995 34.649 312.309 34.4712C312.628 34.2893 312.878 34.0351 313.06 33.7085C313.241 33.3778 313.332 32.9892 313.332 32.5427C313.332 32.0921 313.241 31.7035 313.06 31.3769C312.882 31.0462 312.634 30.792 312.315 30.6142C311.997 30.4364 311.633 30.3475 311.224 30.3475C310.815 30.3475 310.451 30.4364 310.133 30.6142C309.818 30.792 309.57 31.0462 309.389 31.3769C309.211 31.7035 309.122 32.0921 309.122 32.5427C309.122 32.9892 309.211 33.3778 309.389 33.7085C309.57 34.0351 309.821 34.2893 310.139 34.4712C310.457 34.649 310.819 34.7378 311.224 34.7378ZM257.856 50.7672C257.216 50.7672 256.647 50.6267 256.151 50.3455C255.655 50.0644 255.266 49.682 254.985 49.1984C254.704 48.7105 254.564 48.1587 254.564 47.5427C254.564 47.0756 254.646 46.6456 254.812 46.2529C254.981 45.8602 255.219 45.5191 255.525 45.2297C255.831 44.9404 256.188 44.7171 256.598 44.56C257.011 44.3988 257.462 44.3182 257.949 44.3182C258.346 44.3182 258.712 44.3699 259.047 44.4732C259.382 44.5766 259.692 44.7357 259.977 44.9507L259.394 45.8312C259.208 45.67 258.991 45.5501 258.743 45.4716C258.495 45.3889 258.233 45.3475 257.956 45.3475C257.501 45.3475 257.106 45.4344 256.771 45.608C256.44 45.7775 256.184 46.0255 256.002 46.3521C255.82 46.6787 255.729 47.0714 255.729 47.5303C255.729 48.2207 255.928 48.7622 256.325 49.155C256.726 49.5435 257.267 49.7378 257.949 49.7378C258.264 49.7378 258.557 49.682 258.83 49.5704C259.103 49.4547 259.326 49.3058 259.5 49.1239L260.089 49.9921C259.77 50.2319 259.421 50.422 259.041 50.5626C258.66 50.699 258.266 50.7672 257.856 50.7672ZM262.821 50.5812V45.4716H260.737V44.5042H266.051V45.4716H263.962V50.5812H262.821ZM267.348 53.1856V44.5042H268.396V45.4158C268.648 45.0933 268.964 44.8308 269.344 44.6282C269.729 44.4215 270.213 44.3182 270.795 44.3182C271.399 44.3182 271.93 44.4608 272.389 44.7461C272.848 45.0272 273.206 45.4116 273.462 45.8994C273.722 46.3872 273.852 46.935 273.852 47.5427C273.852 47.985 273.778 48.4026 273.629 48.7953C273.485 49.1839 273.276 49.527 273.003 49.8247C272.73 50.1182 272.406 50.3497 272.029 50.5192C271.657 50.6845 271.242 50.7672 270.783 50.7672C270.27 50.7672 269.822 50.6721 269.437 50.482C269.057 50.2877 268.739 50.0334 268.482 49.7192V53.1856H267.348ZM270.591 49.7378C271 49.7378 271.362 49.649 271.676 49.4712C271.994 49.2893 272.242 49.0351 272.42 48.7085C272.602 48.3778 272.693 47.9892 272.693 47.5427C272.693 47.0921 272.602 46.7035 272.42 46.3769C272.242 46.0462 271.994 45.792 271.676 45.6142C271.362 45.4364 271 45.3475 270.591 45.3475C270.182 45.3475 269.818 45.4364 269.499 45.6142C269.185 45.792 268.937 46.0462 268.755 46.3769C268.573 46.7035 268.482 47.0921 268.482 47.5427C268.482 47.9892 268.573 48.3778 268.755 48.7085C268.937 49.0351 269.185 49.2893 269.499 49.4712C269.818 49.649 270.182 49.7378 270.591 49.7378ZM276.961 50.7672C276.531 50.7672 276.157 50.6887 275.839 50.5316C275.52 50.3745 275.274 50.1533 275.101 49.8681C274.927 49.5787 274.84 49.2376 274.84 48.8449C274.84 48.5225 274.923 48.2289 275.088 47.9644C275.254 47.6957 275.514 47.4745 275.87 47.3009C276.225 47.1231 276.686 47.0053 277.252 46.9474C277.819 46.8854 278.503 46.8957 279.305 46.9784L279.336 47.8155C278.716 47.7329 278.189 47.7019 277.755 47.7225C277.321 47.7391 276.969 47.7969 276.701 47.8962C276.432 47.9912 276.233 48.1194 276.105 48.2806C275.981 48.4377 275.919 48.6155 275.919 48.8139C275.919 49.1322 276.033 49.3823 276.26 49.5642C276.492 49.742 276.808 49.8309 277.209 49.8309C277.552 49.8309 277.858 49.7688 278.127 49.6448C278.4 49.5167 278.615 49.341 278.772 49.1177C278.933 48.8904 279.014 48.6279 279.014 48.3302V46.6312C279.014 46.3459 278.949 46.0979 278.821 45.887C278.697 45.6762 278.513 45.5129 278.269 45.3972C278.026 45.2814 277.726 45.2235 277.37 45.2235C277.052 45.2235 276.736 45.2711 276.422 45.3662C276.107 45.4612 275.806 45.6163 275.516 45.8312L275.169 44.9507C275.545 44.6944 275.934 44.5146 276.335 44.4112C276.736 44.3079 277.12 44.2562 277.488 44.2562C278.046 44.2562 278.522 44.3451 278.914 44.5228C279.307 44.6964 279.607 44.959 279.813 45.3103C280.02 45.6617 280.124 46.0999 280.124 46.625V50.5812H279.076V49.8371C278.865 50.1388 278.573 50.3703 278.201 50.5316C277.829 50.6887 277.416 50.7672 276.961 50.7672ZM283.192 50.5812V45.4716H281.108V44.5042H286.423V45.4716H284.333V50.5812H283.192ZM290.453 50.7672C289.809 50.7672 289.24 50.6329 288.748 50.3641C288.256 50.0954 287.872 49.7213 287.595 49.2418C287.318 48.7581 287.179 48.1959 287.179 47.5551C287.179 47.0921 287.258 46.6622 287.415 46.2653C287.576 45.8684 287.799 45.5253 288.085 45.2359C288.374 44.9466 288.711 44.7212 289.095 44.56C289.484 44.3988 289.906 44.3182 290.36 44.3182C290.852 44.3182 291.291 44.405 291.675 44.5786C292.064 44.7523 292.384 44.9962 292.636 45.3103C292.893 45.6204 293.076 45.9862 293.188 46.4079C293.3 46.8254 293.322 47.2802 293.256 47.7721H288.308C288.296 48.1773 288.378 48.5328 288.556 48.8387C288.734 49.1405 288.99 49.3761 289.325 49.5456C289.664 49.7151 290.065 49.7999 290.528 49.7999C290.867 49.7999 291.198 49.7461 291.52 49.6386C291.842 49.5311 292.128 49.372 292.376 49.1612L292.859 50.0107C292.661 50.1719 292.425 50.3104 292.153 50.4262C291.884 50.5378 291.603 50.6225 291.309 50.6804C291.016 50.7383 290.73 50.7672 290.453 50.7672ZM288.37 46.8854H292.115C292.099 46.3728 291.94 45.9738 291.638 45.6886C291.336 45.3992 290.904 45.2545 290.342 45.2545C289.796 45.2545 289.346 45.3992 288.99 45.6886C288.635 45.9738 288.428 46.3728 288.37 46.8854ZM294.731 50.5812V44.5042H298.669V45.4716H295.872V50.5812H294.731ZM299.988 50.5812V44.5042H301.098V48.8697L304.632 44.5042H305.612V50.5812H304.502V46.1661L300.936 50.5812H299.988ZM311.19 50.5812V48.1132C310.893 48.1917 310.612 48.2496 310.347 48.2868C310.082 48.324 309.801 48.3426 309.504 48.3426C308.946 48.3426 308.483 48.2599 308.115 48.0946C307.747 47.9251 307.472 47.6729 307.29 47.3381C307.112 47.0032 307.023 46.5877 307.023 46.0917V44.5042H308.164V45.9242C308.164 46.3872 308.278 46.7386 308.505 46.9784C308.733 47.2182 309.121 47.3381 309.671 47.3381C309.985 47.3381 310.262 47.3236 310.502 47.2947C310.742 47.2657 310.971 47.2285 311.19 47.183V44.5042H312.331V50.5812H311.19ZM317.038 50.7672C316.393 50.7672 315.824 50.6329 315.332 50.3641C314.841 50.0954 314.456 49.7213 314.179 49.2418C313.902 48.7581 313.764 48.1959 313.764 47.5551C313.764 47.0921 313.842 46.6622 313.999 46.2653C314.161 45.8684 314.384 45.5253 314.669 45.2359C314.958 44.9466 315.295 44.7212 315.68 44.56C316.068 44.3988 316.49 44.3182 316.945 44.3182C317.437 44.3182 317.875 44.405 318.259 44.5786C318.648 44.7523 318.968 44.9962 319.221 45.3103C319.477 45.6204 319.661 45.9862 319.772 46.4079C319.884 46.8254 319.907 47.2802 319.841 47.7721H314.892C314.88 48.1773 314.962 48.5328 315.14 48.8387C315.318 49.1405 315.574 49.3761 315.909 49.5456C316.248 49.7151 316.649 49.7999 317.112 49.7999C317.451 49.7999 317.782 49.7461 318.104 49.6386C318.427 49.5311 318.712 49.372 318.96 49.1612L319.444 50.0107C319.245 50.1719 319.01 50.3104 318.737 50.4262C318.468 50.5378 318.187 50.6225 317.893 50.6804C317.6 50.7383 317.315 50.7672 317.038 50.7672ZM314.954 46.8854H318.7C318.683 46.3728 318.524 45.9738 318.222 45.6886C317.92 45.3992 317.488 45.2545 316.926 45.2545C316.38 45.2545 315.93 45.3992 315.574 45.6886C315.219 45.9738 315.012 46.3728 314.954 46.8854ZM324.129 50.7672C323.489 50.7672 322.92 50.6267 322.424 50.3455C321.928 50.0644 321.539 49.682 321.258 49.1984C320.977 48.7105 320.837 48.1587 320.837 47.5427C320.837 47.0756 320.919 46.6456 321.085 46.2529C321.254 45.8602 321.492 45.5191 321.798 45.2297C322.104 44.9404 322.461 44.7171 322.871 44.56C323.284 44.3988 323.735 44.3182 324.222 44.3182C324.619 44.3182 324.985 44.3699 325.32 44.4732C325.655 44.5766 325.965 44.7357 326.25 44.9507L325.667 45.8312C325.481 45.67 325.264 45.5501 325.016 45.4716C324.768 45.3889 324.506 45.3475 324.229 45.3475C323.774 45.3475 323.379 45.4344 323.044 45.608C322.713 45.7775 322.457 46.0255 322.275 46.3521C322.093 46.6787 322.002 47.0714 322.002 47.5303C322.002 48.2207 322.201 48.7622 322.598 49.155C322.999 49.5435 323.54 49.7378 324.222 49.7378C324.537 49.7378 324.83 49.682 325.103 49.5704C325.376 49.4547 325.599 49.3058 325.773 49.1239L326.362 49.9921C326.043 50.2319 325.694 50.422 325.314 50.5626C324.933 50.699 324.539 50.7672 324.129 50.7672ZM331.76 50.5812L329.708 47.3381L331.549 44.5042H332.777L330.942 47.2823L333.137 50.5812H331.76ZM327.686 50.5812V44.5042H328.827V46.8978H330.644V47.8651H328.827V50.5812H327.686ZM337.021 50.7672C336.393 50.7672 335.833 50.6204 335.341 50.3269C334.849 50.0334 334.462 49.6428 334.181 49.155C333.9 48.6671 333.759 48.1297 333.759 47.5427C333.759 47.1086 333.84 46.6973 334.001 46.3087C334.162 45.9201 334.39 45.577 334.683 45.2793C334.977 44.9776 335.322 44.7419 335.719 44.5724C336.116 44.4029 336.55 44.3182 337.021 44.3182C337.654 44.3182 338.216 44.4649 338.708 44.7585C339.2 45.052 339.586 45.4426 339.867 45.9304C340.148 46.4183 340.289 46.9557 340.289 47.5427C340.289 47.9768 340.208 48.3881 340.047 48.7767C339.886 49.1653 339.659 49.5084 339.365 49.8061C339.072 50.1037 338.726 50.3393 338.33 50.513C337.933 50.6825 337.497 50.7672 337.021 50.7672ZM337.021 49.7378C337.43 49.7378 337.792 49.649 338.106 49.4712C338.425 49.2893 338.675 49.0351 338.857 48.7085C339.038 48.3778 339.129 47.9892 339.129 47.5427C339.129 47.0921 339.038 46.7035 338.857 46.3769C338.679 46.0462 338.431 45.792 338.112 45.6142C337.794 45.4364 337.43 45.3475 337.021 45.3475C336.612 45.3475 336.248 45.4364 335.93 45.6142C335.616 45.792 335.368 46.0462 335.186 46.3769C335.008 46.7035 334.919 47.0921 334.919 47.5427C334.919 47.9892 335.008 48.3778 335.186 48.7085C335.368 49.0351 335.618 49.2893 335.936 49.4712C336.254 49.649 336.616 49.7378 337.021 49.7378ZM341.723 50.5812V44.5042H345.661V45.4716H342.864V50.5812H341.723ZM349.702 50.7672C349.073 50.7672 348.513 50.6204 348.021 50.3269C347.529 50.0334 347.143 49.6428 346.862 49.155C346.58 48.6671 346.44 48.1297 346.44 47.5427C346.44 47.1086 346.521 46.6973 346.682 46.3087C346.843 45.9201 347.07 45.577 347.364 45.2793C347.657 44.9776 348.003 44.7419 348.399 44.5724C348.796 44.4029 349.23 44.3182 349.702 44.3182C350.334 44.3182 350.896 44.4649 351.388 44.7585C351.88 45.052 352.267 45.4426 352.548 45.9304C352.829 46.4183 352.97 46.9557 352.97 47.5427C352.97 47.9768 352.889 48.3881 352.728 48.7767C352.566 49.1653 352.339 49.5084 352.046 49.8061C351.752 50.1037 351.407 50.3393 351.01 50.513C350.613 50.6825 350.177 50.7672 349.702 50.7672ZM349.702 49.7378C350.111 49.7378 350.473 49.649 350.787 49.4712C351.105 49.2893 351.355 49.0351 351.537 48.7085C351.719 48.3778 351.81 47.9892 351.81 47.5427C351.81 47.0921 351.719 46.7035 351.537 46.3769C351.359 46.0462 351.111 45.792 350.793 45.6142C350.475 45.4364 350.111 45.3475 349.702 45.3475C349.292 45.3475 348.929 45.4364 348.61 45.6142C348.296 45.792 348.048 46.0462 347.866 46.3769C347.688 46.7035 347.599 47.0921 347.599 47.5427C347.599 47.9892 347.688 48.3778 347.866 48.7085C348.048 49.0351 348.298 49.2893 348.616 49.4712C348.935 49.649 349.296 49.7378 349.702 49.7378ZM255.103 65.5812V59.5042H256.102H256.139L258.954 63.51L258.458 63.5225L261.149 59.5042H262.172V65.5812H261.112L261.124 60.8994L261.335 60.9925L259.028 64.3038H258.253L255.853 60.98L256.058 60.887L256.07 65.5812H255.103ZM265.819 65.7672C265.389 65.7672 265.015 65.6887 264.696 65.5316C264.378 65.3745 264.132 65.1533 263.958 64.8681C263.785 64.5787 263.698 64.2376 263.698 63.8449C263.698 63.5225 263.781 63.2289 263.946 62.9644C264.111 62.6957 264.372 62.4745 264.727 62.3009C265.083 62.1231 265.544 62.0053 266.11 61.9474C266.676 61.8854 267.361 61.8957 268.163 61.9784L268.194 62.8155C267.574 62.7329 267.046 62.7019 266.612 62.7225C266.178 62.7391 265.827 62.7969 265.558 62.8962C265.289 62.9912 265.091 63.1194 264.963 63.2806C264.839 63.4377 264.777 63.6155 264.777 63.8139C264.777 64.1322 264.891 64.3823 265.118 64.5642C265.349 64.742 265.666 64.8309 266.067 64.8309C266.41 64.8309 266.716 64.7688 266.984 64.6448C267.257 64.5167 267.472 64.341 267.629 64.1177C267.791 63.8904 267.871 63.6279 267.871 63.3302V61.6312C267.871 61.3459 267.807 61.0979 267.679 60.887C267.555 60.6762 267.371 60.5129 267.127 60.3972C266.883 60.2814 266.583 60.2235 266.228 60.2235C265.91 60.2235 265.593 60.2711 265.279 60.3662C264.965 60.4612 264.663 60.6163 264.374 60.8312L264.027 59.9507C264.403 59.6944 264.791 59.5146 265.192 59.4112C265.593 59.3079 265.978 59.2562 266.346 59.2562C266.904 59.2562 267.379 59.3451 267.772 59.5228C268.165 59.6964 268.464 59.959 268.671 60.3103C268.878 60.6617 268.981 61.0999 268.981 61.625V65.5812H267.933V64.8371C267.722 65.1388 267.431 65.3703 267.059 65.5316C266.687 65.6887 266.273 65.7672 265.819 65.7672ZM270.872 68.1856V59.5042H271.92V60.4158C272.172 60.0933 272.488 59.8308 272.869 59.6282C273.253 59.4215 273.737 59.3182 274.32 59.3182C274.923 59.3182 275.455 59.4608 275.913 59.7461C276.372 60.0272 276.73 60.4116 276.986 60.8994C277.247 61.3872 277.377 61.935 277.377 62.5427C277.377 62.985 277.302 63.4026 277.154 63.7953C277.009 64.1839 276.8 64.527 276.527 64.8247C276.254 65.1182 275.93 65.3497 275.554 65.5192C275.182 65.6845 274.766 65.7672 274.307 65.7672C273.795 65.7672 273.346 65.6721 272.962 65.482C272.581 65.2877 272.263 65.0334 272.007 64.7192V68.1856H270.872ZM274.115 64.7378C274.524 64.7378 274.886 64.649 275.2 64.4712C275.519 64.2893 275.767 64.0351 275.944 63.7085C276.126 63.3778 276.217 62.9892 276.217 62.5427C276.217 62.0921 276.126 61.7035 275.944 61.3769C275.767 61.0462 275.519 60.792 275.2 60.6142C274.886 60.4364 274.524 60.3475 274.115 60.3475C273.706 60.3475 273.342 60.4364 273.024 60.6142C272.71 60.792 272.462 61.0462 272.28 61.3769C272.098 61.7035 272.007 62.0921 272.007 62.5427C272.007 62.9892 272.098 63.3778 272.28 63.7085C272.462 64.0351 272.71 64.2893 273.024 64.4712C273.342 64.649 273.706 64.7378 274.115 64.7378ZM282.879 65.5812L280.826 62.3381L282.668 59.5042H283.896L282.06 62.2823L284.256 65.5812H282.879ZM278.805 65.5812V59.5042H279.946V61.8978H281.763V62.8651H279.946V65.5812H278.805ZM288.152 65.7672C287.507 65.7672 286.939 65.6329 286.447 65.3641C285.955 65.0954 285.571 64.7213 285.294 64.2418C285.017 63.7581 284.878 63.1959 284.878 62.5551C284.878 62.0921 284.957 61.6622 285.114 61.2653C285.275 60.8684 285.498 60.5253 285.784 60.2359C286.073 59.9466 286.41 59.7212 286.794 59.56C287.183 59.3988 287.605 59.3182 288.059 59.3182C288.551 59.3182 288.989 59.405 289.374 59.5786C289.763 59.7523 290.083 59.9962 290.335 60.3103C290.591 60.6204 290.775 60.9862 290.887 61.4079C290.999 61.8254 291.021 62.2802 290.955 62.7721H286.007C285.994 63.1773 286.077 63.5328 286.255 63.8387C286.433 64.1405 286.689 64.3761 287.024 64.5456C287.363 64.7151 287.764 64.7999 288.227 64.7999C288.566 64.7999 288.896 64.7461 289.219 64.6386C289.541 64.5311 289.827 64.372 290.075 64.1612L290.558 65.0107C290.36 65.1719 290.124 65.3104 289.851 65.4262C289.583 65.5378 289.302 65.6225 289.008 65.6804C288.715 65.7383 288.429 65.7672 288.152 65.7672ZM286.069 61.8854H289.814C289.798 61.3728 289.639 60.9738 289.337 60.6886C289.035 60.3992 288.603 60.2545 288.041 60.2545C287.495 60.2545 287.044 60.3992 286.689 60.6886C286.333 60.9738 286.127 61.3728 286.069 61.8854ZM293.838 65.5812V60.4716H291.754V59.5042H297.068V60.4716H294.979V65.5812H293.838ZM298.365 65.5812V59.5042H299.475V63.8697L303.009 59.5042H303.989V65.5812H302.879V61.1661L299.313 65.5812H298.365ZM305.958 65.5812V59.5042H307.099V61.8978H310.392V59.5042H311.533V65.5812H310.392V62.8651H307.099V65.5812H305.958ZM313.504 65.5812V59.5042H317.441V60.4716H314.645V65.5812H313.504ZM320.441 65.7672C320.011 65.7672 319.636 65.6887 319.318 65.5316C319 65.3745 318.754 65.1533 318.58 64.8681C318.407 64.5787 318.32 64.2376 318.32 63.8449C318.32 63.5225 318.402 63.2289 318.568 62.9644C318.733 62.6957 318.994 62.4745 319.349 62.3009C319.705 62.1231 320.166 62.0053 320.732 61.9474C321.298 61.8854 321.983 61.8957 322.785 61.9784L322.816 62.8155C322.195 62.7329 321.668 62.7019 321.234 62.7225C320.8 62.7391 320.449 62.7969 320.18 62.8962C319.911 62.9912 319.713 63.1194 319.585 63.2806C319.461 63.4377 319.399 63.6155 319.399 63.8139C319.399 64.1322 319.512 64.3823 319.74 64.5642C319.971 64.742 320.288 64.8309 320.689 64.8309C321.032 64.8309 321.338 64.7688 321.606 64.6448C321.879 64.5167 322.094 64.341 322.251 64.1177C322.412 63.8904 322.493 63.6279 322.493 63.3302V61.6312C322.493 61.3459 322.429 61.0979 322.301 60.887C322.177 60.6762 321.993 60.5129 321.749 60.3972C321.505 60.2814 321.205 60.2235 320.85 60.2235C320.532 60.2235 320.215 60.2711 319.901 60.3662C319.587 60.4612 319.285 60.6163 318.996 60.8312L318.648 59.9507C319.025 59.6944 319.413 59.5146 319.814 59.4112C320.215 59.3079 320.6 59.2562 320.968 59.2562C321.526 59.2562 322.001 59.3451 322.394 59.5228C322.787 59.6964 323.086 59.959 323.293 60.3103C323.5 60.6617 323.603 61.0999 323.603 61.625V65.5812H322.555V64.8371C322.344 65.1388 322.053 65.3703 321.681 65.5316C321.309 65.6887 320.895 65.7672 320.441 65.7672Z" fill="black"/>
<path d="M226.234 16.3531L226.234 74.3803" stroke="black" stroke-width="0.676471"/>
</svg>
