<svg width="20" height="20" viewBox="0 0 20 20" fill="none" xmlns="http://www.w3.org/2000/svg">
<path fill-rule="evenodd" clip-rule="evenodd" d="M2.8343 1.04143C3.0393 0.83641 3.28555 0.67732 3.55672 0.574718C3.82789 0.472115 4.11778 0.428346 4.40715 0.446314C4.69653 0.464281 4.97877 0.543575 5.23516 0.678934C5.49156 0.814294 5.71624 1.00262 5.8943 1.23143L7.99555 3.93393C8.3818 4.42893 8.51805 5.07518 8.36555 5.68393L7.7243 8.25019C7.69095 8.38335 7.69265 8.52287 7.72923 8.65518C7.76582 8.78749 7.83604 8.90807 7.93305 9.00518L10.8131 11.8839C10.9102 11.981 11.0307 12.0512 11.1631 12.0878C11.2954 12.1243 11.4349 12.126 11.5681 12.0927L14.1331 11.4514C14.4339 11.3763 14.7479 11.3706 15.0513 11.4347C15.3547 11.4988 15.6396 11.631 15.8843 11.8214L18.5868 13.9227C19.5581 14.6777 19.6481 16.1139 18.7781 16.9827L17.5656 18.1952C16.6993 19.0614 15.4031 19.4427 14.1943 19.0177C11.1023 17.9294 8.29499 16.1589 5.98055 13.8377C3.65885 11.5234 1.88798 8.71604 0.799302 5.62393C0.374302 4.41518 0.755552 3.11893 1.6218 2.25143L2.8343 1.04018V1.04143Z" fill="white"/>
</svg>
