<svg width="42" height="42" viewBox="0 0 42 42" fill="none" xmlns="http://www.w3.org/2000/svg">
<circle cx="21" cy="21" r="21" fill="black"/>
<path d="M27.9294 11.8359C27.8625 11.8536 25.4087 12.7999 21.3637 14.3641C20.385 14.742 19.086 15.2469 18.4769 15.4835C17.8679 15.7165 17.2729 15.9496 17.1568 15.9919C17.0406 16.0378 15.0445 16.8111 12.721 17.708C10.3975 18.6049 8.33096 19.417 8.13029 19.5159C7.48957 19.8231 7.18329 20.2045 7.22201 20.6423C7.25018 20.9636 7.43324 21.1896 7.82753 21.3874C7.9261 21.4368 8.56683 21.6557 9.25332 21.8747C9.93981 22.09 11.0769 22.4502 11.774 22.6727C12.5485 22.9163 13.1047 23.0752 13.1927 23.0752C13.3687 23.0752 13.492 23.0152 14.0552 22.655C14.2876 22.5032 14.9811 22.0653 15.5901 21.6804C16.1992 21.292 16.8434 20.886 17.0159 20.773C17.192 20.6635 17.4278 20.5117 17.544 20.4411C17.6602 20.3669 17.8996 20.2186 18.0721 20.1056C18.4171 19.8867 23.5323 16.6487 24.1625 16.2497C24.3772 16.1155 24.511 16.0449 24.4617 16.0943C24.4124 16.1402 23.3774 17.083 22.1558 18.1882C20.9377 19.2899 19.6316 20.4728 19.2549 20.8153C18.8783 21.1543 17.9841 21.9665 17.2659 22.6162C16.5477 23.2694 15.9352 23.8485 15.907 23.905C15.8471 24.0321 15.8471 24.2369 15.907 24.3817C15.9598 24.5088 15.6887 24.3005 20.1315 27.5949C21.9235 28.9226 23.5077 30.0985 23.6555 30.2079C24.0463 30.501 24.3983 30.6387 24.7962 30.6599C25.2397 30.6811 25.4404 30.6034 25.722 30.2997C26.0811 29.9148 25.8875 30.7199 27.8906 21.2391C27.9963 20.7447 28.3694 18.9792 28.7215 17.3196C29.5558 13.3825 29.5312 13.5026 29.5312 13.2059C29.5312 12.5845 29.2143 12.0619 28.732 11.8818C28.549 11.8147 28.1195 11.79 27.9294 11.8359Z" fill="white"/>
</svg>
