<svg width="42" height="42" viewBox="0 0 42 42" fill="none" xmlns="http://www.w3.org/2000/svg">
<path d="M21 0C9.45 0 0 9.45 0 21C0 32.55 9.45 42 21 42C32.55 42 42 32.55 42 21C42 9.45 32.55 0 21 0Z" fill="black"/>
<path d="M22.2604 30.66C12.8104 30.66 7.45536 24.255 7.24536 13.44H11.9704C12.0754 21.315 15.6454 24.675 18.3754 25.305V13.44H22.7854V20.265C25.5154 19.95 28.3504 16.905 29.2954 13.44H33.7054C32.9704 17.64 29.8204 20.79 27.6154 22.05C29.8204 23.1 33.3904 25.83 34.6504 30.66H29.7154C28.6654 27.405 26.0404 24.885 22.5754 24.465V30.66H22.2604Z" fill="white"/>
</svg>
